<svg width="20" height="16" viewBox="0 0 20 16" fill="none" xmlns="http://www.w3.org/2000/svg">
<path d="M17 7.75005V7.85317L19.1781 5.67505C19.8625 4.99067 19.8625 3.88442 19.1781 3.20005L16.7375 0.762549C16.0531 0.0781738 14.9469 0.0781738 14.2625 0.762549L13.0094 2.01567C12.925 2.0063 12.8375 2.00005 12.75 2.00005H9.25C8.09062 2.00005 7.1375 2.87505 7.0125 4.00005H7V7.75005C7 8.44067 7.55937 9.00005 8.25 9.00005C8.94063 9.00005 9.5 8.44067 9.5 7.75005V5.50005V5.49692V5.00005H10H14.25C14.25 5.00005 14.25 5.00005 14.2531 5.00005H14.5C15.8813 5.00005 17 6.1188 17 7.50005V7.75005ZM10.5 6.00005V7.75005C10.5 8.9938 9.49375 10 8.25 10C7.00625 10 6 8.9938 6 7.75005V4.0438C4.87813 4.23755 3.94375 5.05317 3.625 6.17505L3.10938 7.97505L0.821875 10.2625C0.1375 10.9469 0.1375 12.0532 0.821875 12.7375L3.2625 15.1782C3.94688 15.8625 5.05313 15.8625 5.7375 15.1782L6.91563 14C6.94375 14 6.97188 14.0032 7 14.0032H12C12.8281 14.0032 13.5 13.3313 13.5 12.5032C13.5 12.3282 13.4688 12.1594 13.4156 12.0032H13.5C14.3281 12.0032 15 11.3313 15 10.5032C15 10.1032 14.8438 9.74067 14.5875 9.47192C15.3906 9.31567 15.9969 8.60942 16 7.75942V7.74692C15.9969 6.78442 15.2156 6.00317 14.25 6.00317H10.5V6.00005Z" fill="#FFE1C5"/>
</svg>
