<svg width="22" height="23" viewBox="0 0 22 23" fill="none" xmlns="http://www.w3.org/2000/svg">
<path d="M11.5071 15.6306C11.3768 15.773 11.1927 15.8542 10.9997 15.8542C10.8066 15.8542 10.6226 15.773 10.4923 15.6306L6.82562 11.6202C6.56941 11.3399 6.58888 10.9051 6.86911 10.6489C7.14934 10.3927 7.5842 10.4121 7.84041 10.6923L10.3122 13.3958V3.25C10.3122 2.87031 10.62 2.5625 10.9997 2.5625C11.3794 2.5625 11.6872 2.87031 11.6872 3.25V13.3958L14.159 10.6923C14.4152 10.4121 14.85 10.3927 15.1303 10.6489C15.4105 10.9051 15.4299 11.3399 15.1737 11.6202L11.5071 15.6306Z" fill="#090B0B"/>
<path d="M3.4375 14.25C3.4375 13.8703 3.1297 13.5625 2.75 13.5625C2.37031 13.5625 2.0625 13.8703 2.0625 14.25V14.3003C2.06248 15.554 2.06246 16.5644 2.16931 17.3591C2.28025 18.1842 2.51756 18.8789 3.06932 19.4306C3.62108 19.9825 4.3158 20.2198 5.1409 20.3307C5.93562 20.4375 6.94608 20.4375 8.1997 20.4375H13.8003C15.054 20.4375 16.0644 20.4375 16.8591 20.3307C17.6842 20.2198 18.3789 19.9825 18.9307 19.4306C19.4825 18.8789 19.7198 18.1842 19.8307 17.3591C19.9375 16.5644 19.9375 15.554 19.9375 14.3003V14.25C19.9375 13.8703 19.6297 13.5625 19.25 13.5625C18.8703 13.5625 18.5625 13.8703 18.5625 14.25C18.5625 15.5658 18.561 16.4835 18.468 17.1759C18.3775 17.8486 18.2122 18.2047 17.9584 18.4584C17.7047 18.7121 17.3486 18.8775 16.6759 18.968C15.9835 19.061 15.0658 19.0625 13.75 19.0625H8.25C6.93421 19.0625 6.01651 19.061 5.32411 18.968C4.65149 18.8775 4.29529 18.7121 4.04159 18.4584C3.7879 18.2047 3.62248 17.8486 3.53205 17.1759C3.43896 16.4835 3.4375 15.5658 3.4375 14.25Z" 
fill="#000"/>
</svg>
