<svg width="15" height="15" viewBox="0 0 15 15" fill="none" xmlns="http://www.w3.org/2000/svg">
<path d="M1.0662 10.5732L0.392375 12.8613L0.0290938 14.0977C-0.0441484 14.3467 0.0232345 14.6133 0.204875 14.7949C0.386516 14.9766 0.653117 15.0439 0.899211 14.9736L2.13847 14.6074L4.42655 13.9336C4.78984 13.8281 5.12089 13.6436 5.40507 13.3945C5.44609 13.3594 5.48417 13.3213 5.52226 13.2832L14.4344 4.37402C15.076 3.73242 15.1551 2.74512 14.6746 2.01562C14.6072 1.91309 14.5252 1.81348 14.4344 1.72266L13.2801 0.56543C12.5476 -0.166992 11.3611 -0.166992 10.6287 0.56543L1.71659 9.47754C1.41191 9.78223 1.18925 10.1602 1.0662 10.5732ZM2.41386 10.9688C2.46366 10.8047 2.5457 10.6523 2.65995 10.5234C2.67753 10.5059 2.69218 10.4883 2.70976 10.4707L9.40409 3.7793L11.2205 5.5957L4.52909 12.29C4.3914 12.4277 4.21855 12.5303 4.03105 12.5859L3.3455 12.7881L1.74003 13.2598L2.21171 11.6543L2.41386 10.9688Z" 
fill="#536175"/>
</svg>
