<svg width="11" height="11" viewBox="0 0 11 11" fill="none" xmlns="http://www.w3.org/2000/svg">
<path d="M6.60352 0.96875C6.60352 1.22852 6.8125 1.4375 7.07227 1.4375H9.06641L4.70898 5.79297C4.52539 5.97656 4.52539 6.27344 4.70898 6.45508C4.89258 6.63672 5.18945 6.63867 5.37109 6.45508L9.72656 2.09961V4.09375C9.72656 4.35352 9.93555 4.5625 10.1953 4.5625C10.4551 4.5625 10.6641 4.35352 10.6641 4.09375V0.96875C10.6641 0.708984 10.4551 0.5 10.1953 0.5H7.07227C6.8125 0.5 6.60352 0.708984 6.60352 0.96875ZM2.07227 1.125C1.29492 1.125 0.666016 1.75391 0.666016 2.53125V9.09375C0.666016 9.87109 1.29492 10.5 2.07227 10.5H8.63477C9.41211 10.5 10.041 9.87109 10.041 9.09375V6.59375C10.041 6.33398 9.83203 6.125 9.57227 6.125C9.3125 6.125 9.10352 6.33398 9.10352 6.59375V9.09375C9.10352 9.35352 8.89453 9.5625 8.63477 9.5625H2.07227C1.8125 9.5625 1.60352 9.35352 1.60352 9.09375V2.53125C1.60352 2.27148 1.8125 2.0625 2.07227 2.0625H4.57227C4.83203 2.0625 5.04102 1.85352 5.04102 1.59375C5.04102 1.33398 4.83203 1.125 4.57227 1.125H2.07227Z" 
fill="#25282d"/>
</svg>
