<svg width="15" height="14" viewBox="0 0 15 14" fill="none" xmlns="http://www.w3.org/2000/svg">
<path d="M0.906437 0.550049C0.413077 0.550049 0.00643661 0.95669 0.00643661 1.45005V12.5219C-0.0123134 12.5911 -0.00528214 12.6637 0.0251866 12.7282C0.109562 13.1372 0.475187 13.45 0.906437 13.45H12.6064C13.0541 13.45 13.4221 13.1125 13.4877 12.6813C13.49 12.6625 13.4959 12.6438 13.4971 12.625C13.4971 12.6192 13.4971 12.6122 13.4971 12.6063L13.5064 12.5594C13.5064 12.5559 13.5064 12.5536 13.5064 12.55L14.9971 4.5063L15.0064 4.47817V4.45005C15.0064 3.95669 14.5998 3.55005 14.1064 3.55005V2.65005C14.1064 2.15669 13.6998 1.75005 13.2064 1.75005H5.41581C5.41698 1.75122 5.41347 1.75005 5.40644 1.75005C5.39706 1.74302 5.37011 1.72075 5.32206 1.66567C5.24823 1.5813 5.16269 1.44067 5.06894 1.29067C4.97519 1.14067 4.87441 0.981299 4.75019 0.840674C4.62597 0.700049 4.45253 0.550049 4.20644 0.550049H0.906437ZM0.906437 1.15005H4.20644C4.18769 1.15005 4.22636 1.15005 4.30019 1.23442C4.37401 1.3188 4.45956 1.45942 4.55331 1.60942C4.64706 1.75942 4.75019 1.9188 4.87206 2.05942C4.99394 2.20005 5.16034 2.35005 5.40644 2.35005H13.2064C13.3752 2.35005 13.5064 2.4813 13.5064 2.65005V3.55005H2.40644C1.93417 3.55005 1.558 3.92974 1.52519 4.3938H1.51581L1.50644 4.45005L0.606437 9.3063V1.45005C0.606437 1.2813 0.737687 1.15005 0.906437 1.15005ZM2.40644 4.15005H14.1064C14.2752 4.15005 14.4064 4.2813 14.4064 4.45005L12.9346 12.4094L12.9252 12.4282C12.9217 12.4399 12.9182 12.4528 12.9158 12.4657C12.9123 12.4774 12.9088 12.4903 12.9064 12.5032C12.9064 12.509 12.9064 12.5161 12.9064 12.5219C12.9064 12.5254 12.9064 12.5278 12.9064 12.5313C12.9017 12.5465 12.8994 12.5618 12.8971 12.5782C12.8959 12.5875 12.8982 12.5969 12.8971 12.6063C12.8959 12.6192 12.8959 12.6309 12.8971 12.6438C12.8596 12.7657 12.7435 12.85 12.6064 12.85H0.906437C0.737687 12.85 0.606437 12.7188 0.606437 12.55L2.09706 4.5063L2.10644 4.47817V4.45005C2.10644 4.2813 2.23769 4.15005 2.40644 4.15005Z" fill="black"/>
</svg>
