<svg width="18" height="16" viewBox="0 0 18 16" fill="none" xmlns="http://www.w3.org/2000/svg">
<path d="M17.9947 7.98438C17.9947 8.54688 17.526 8.9875 16.9947 8.9875H15.9947L16.0166 13.9937C16.0166 14.0781 16.0104 14.1625 16.001 14.2469V14.75C16.001 15.4406 15.4416 16 14.751 16H14.251C14.2166 16 14.1822 16 14.1479 15.9969C14.1041 16 14.0604 16 14.0166 16H13.001H12.251C11.5604 16 11.001 15.4406 11.001 14.75V14V12C11.001 11.4469 10.5541 11 10.001 11H8.00098C7.44785 11 7.00098 11.4469 7.00098 12V14V14.75C7.00098 15.4406 6.4416 16 5.75098 16H5.00098H4.0041C3.95723 16 3.91035 15.9969 3.86348 15.9937C3.82598 15.9969 3.78848 16 3.75098 16H3.25098C2.56035 16 2.00098 15.4406 2.00098 14.75V11.25C2.00098 11.2219 2.00098 11.1906 2.0041 11.1625V8.9875H1.00098C0.438477 8.9875 0.000976562 8.55 0.000976562 7.98438C0.000976562 7.70312 0.0947266 7.45312 0.313477 7.23438L8.32598 0.25C8.54473 0.03125 8.79473 0 9.01348 0C9.23223 0 9.48223 0.0625 9.66973 0.21875L17.651 7.23438C17.901 7.45312 18.026 7.70312 17.9947 7.98438Z" fill="#FFE1C5"/>
</svg>
