<svg width="16" height="17" viewBox="0 0 16 17" fill="none" xmlns="http://www.w3.org/2000/svg">
<path d="M2.28571 14.7857C1.97143 14.7857 1.71429 14.5286 1.71429 14.2143V2.78571C1.71429 2.47143 1.97143 2.21429 2.28571 2.21429H13.7143C14.0286 2.21429 14.2857 2.47143 14.2857 2.78571V14.2143C14.2857 14.5286 14.0286 14.7857 13.7143 14.7857H2.28571ZM0 14.2143C0 15.475 1.025 16.5 2.28571 16.5H13.7143C14.975 16.5 16 15.475 16 14.2143V2.78571C16 1.525 14.975 0.5 13.7143 0.5H2.28571C1.025 0.5 0 1.525 0 2.78571V14.2143ZM4.57143 9.64286C5.04643 9.64286 5.42857 9.26072 5.42857 8.78572V4.78571C5.42857 4.31071 5.04643 3.92857 4.57143 3.92857C4.09643 3.92857 3.71429 4.31071 3.71429 4.78571V8.78572C3.71429 9.26072 4.09643 9.64286 4.57143 9.64286ZM10.5714 11.0714C10.5714 11.5464 10.9536 11.9286 11.4286 11.9286C11.9036 11.9286 12.2857 11.5464 12.2857 11.0714V4.78571C12.2857 4.31071 11.9036 3.92857 11.4286 3.92857C10.9536 3.92857 10.5714 4.31071 10.5714 4.78571V11.0714ZM8 8.5C8.475 8.5 8.85714 8.11786 8.85714 7.64286V4.78571C8.85714 4.31071 8.475 3.92857 8 3.92857C7.525 3.92857 7.14286 4.31071 7.14286 4.78571V7.64286C7.14286 8.11786 7.525 8.5 8 8.5Z" fill="#1E293B"/>
</svg>
