<svg width="16" height="12" viewBox="0 0 16 12" fill="none" xmlns="http://www.w3.org/2000/svg">
<path d="M2.375 2.03125C2.11719 2.03125 1.90625 2.24219 1.90625 2.5V3.14746L6.95996 7.2959C7.56641 7.79395 8.43652 7.79395 9.04297 7.2959L14.0938 3.14746V2.5C14.0938 2.24219 13.8828 2.03125 13.625 2.03125H2.375ZM1.90625 4.9668V10C1.90625 10.2578 2.11719 10.4688 2.375 10.4688H13.625C13.8828 10.4688 14.0938 10.2578 14.0938 10V4.9668L9.93359 8.38281C8.80859 9.30566 7.18848 9.30566 6.06641 8.38281L1.90625 4.9668ZM0.5 2.5C0.5 1.46582 1.34082 0.625 2.375 0.625H13.625C14.6592 0.625 15.5 1.46582 15.5 2.5V10C15.5 11.0342 14.6592 11.875 13.625 11.875H2.375C1.34082 11.875 0.5 11.0342 0.5 10V2.5Z" 
fill="#25282d"/>
</svg>
