<svg width="10" height="10" viewBox="0 0 10 10" fill="none" xmlns="http://www.w3.org/2000/svg">
<path d="M5.39244 0.892892C5.39244 0.596017 5.1536 0.357178 4.85672 0.357178C4.55985 0.357178 4.32101 0.596017 4.32101 0.892892V4.46432H0.749581C0.452706 4.46432 0.213867 4.70316 0.213867 5.00003C0.213867 5.29691 0.452706 5.53575 0.749581 5.53575H4.32101V9.10718C4.32101 9.40405 4.55985 9.64289 4.85672 9.64289C5.1536 9.64289 5.39244 9.40405 5.39244 9.10718V5.53575H8.96387C9.26074 5.53575 9.49958 5.29691 9.49958 5.00003C9.49958 4.70316 9.26074 4.46432 8.96387 4.46432H5.39244V0.892892Z" 
fill="#536175"/>
</svg>
