<svg width="10" height="10" viewBox="0 0 10 10" fill="none" xmlns="http://www.w3.org/2000/svg">
<path d="M5.17857 0.892648C5.17857 0.595773 4.93973 0.356934 4.64286 0.356934C4.34598 0.356934 4.10714 0.595773 4.10714 0.892648V4.46408H0.535714C0.238839 4.46408 0 4.70292 0 4.99979C0 5.29667 0.238839 5.53551 0.535714 5.53551H4.10714V9.10693C4.10714 9.40381 4.34598 9.64265 4.64286 9.64265C4.93973 9.64265 5.17857 9.40381 5.17857 9.10693V5.53551H8.75C9.04688 5.53551 9.28571 5.29667 9.28571 4.99979C9.28571 4.70292 9.04688 4.46408 8.75 4.46408H5.17857V0.892648Z" fill="#00458A"/>
</svg>
