<svg width="18" height="12" viewBox="0 0 18 12" fill="none" xmlns="http://www.w3.org/2000/svg">
<path d="M2 0C0.896875 0 0 0.896875 0 2V10C0 11.1031 0.896875 12 2 12H16C17.1031 12 18 11.1031 18 10V2C18 0.896875 17.1031 0 16 0H2ZM4 10H2V8C3.10313 8 4 8.89688 4 10ZM2 4V2H4C4 3.10313 3.10313 4 2 4ZM14 10C14 8.89688 14.8969 8 16 8V10H14ZM16 4C14.8969 4 14 3.10313 14 2H16V4ZM9 3C9.79565 3 10.5587 3.31607 11.1213 3.87868C11.6839 4.44129 12 5.20435 12 6C12 6.79565 11.6839 7.55871 11.1213 8.12132C10.5587 8.68393 9.79565 9 9 9C8.20435 9 7.44129 8.68393 6.87868 8.12132C6.31607 7.55871 6 6.79565 6 6C6 5.20435 6.31607 4.44129 6.87868 3.87868C7.44129 3.31607 8.20435 3 9 3Z" fill="#FFE1C5"/>
</svg>
