<svg width="20" height="20" viewBox="0 0 20 20" fill="none" xmlns="http://www.w3.org/2000/svg">
<path fillRule="evenodd" clipRule="evenodd" d="M9.99967 6.66658C9.11562 6.66658 8.26777 7.01777 7.64265 7.6429C7.01753 8.26802 6.66634 9.11586 6.66634 9.99992C6.66634 10.884 7.01753 11.7318 7.64265 12.3569C8.26777 12.9821 9.11562 13.3333 9.99967 13.3333C10.8837 13.3333 11.7316 12.9821 12.3567 12.3569C12.9818 11.7318 13.333 10.884 13.333 9.99992C13.333 9.11586 12.9818 8.26802 12.3567 7.6429C11.7316 7.01777 10.8837 6.66658 9.99967 6.66658ZM8.82116 8.82141C9.13372 8.50885 9.55765 8.33325 9.99967 8.33325C10.4417 8.33325 10.8656 8.50885 11.1782 8.82141C11.4907 9.13397 11.6663 9.55789 11.6663 9.99992C11.6663 10.4419 11.4907 10.8659 11.1782 11.1784C10.8656 11.491 10.4417 11.6666 9.99967 11.6666C9.55765 11.6666 9.13372 11.491 8.82116 11.1784C8.5086 10.8659 8.33301 10.4419 8.33301 9.99992C8.33301 9.55789 8.5086 9.13397 8.82116 8.82141Z" fill="#FFE1C5"/>
<path fillRule="evenodd" clipRule="evenodd" d="M9.15051 0.833252C8.77197 0.833252 8.44098 1.08839 8.34462 1.45446L7.92233 3.05879L6.58063 3.62438L5.55358 2.71065C5.22383 2.41728 4.72251 2.4319 4.41042 2.744L2.74375 4.41066C2.44183 4.71258 2.41696 5.19386 2.68615 5.52529L3.58625 6.63354L3.03429 7.99148L1.47689 8.35507C1.09978 8.44311 0.833008 8.77933 0.833008 9.16658V10.8333C0.833008 11.209 1.0845 11.5383 1.44702 11.6372L3.05675 12.0763L3.62388 13.4217L2.71106 14.4453C2.41705 14.775 2.43139 15.2768 2.74375 15.5892L4.41042 17.2558C4.71274 17.5582 5.19482 17.5826 5.52621 17.3125L6.63408 16.4094L7.95863 16.9542L8.35837 18.5373C8.45181 18.9073 8.78468 19.1666 9.16634 19.1666H10.833C11.2145 19.1666 11.5473 18.9075 11.6409 18.5377L12.0416 16.954L13.4105 16.387C13.5483 16.5025 13.7063 16.6382 13.8635 16.7751C14.0197 16.9111 14.1649 17.0393 14.2711 17.1336C14.3242 17.1806 14.3674 17.2192 14.3973 17.2458L14.4426 17.2863C14.7721 17.582 15.2759 17.5689 15.5889 17.2558L17.2556 15.5892C17.5623 15.2825 17.5825 14.7918 17.3019 14.4609L16.3942 13.3905L16.9559 12.0338L18.5426 11.6215C18.9099 11.526 19.1663 11.1944 19.1663 10.8149V9.16658C19.1663 8.78548 18.9078 8.45294 18.5385 8.35898L16.9616 7.95779L16.4013 6.60437L17.3028 5.53788C17.5825 5.207 17.5619 4.71701 17.2556 4.41066L15.5889 2.744C15.2813 2.4364 14.7889 2.41715 14.4582 2.69979L13.3996 3.60465L11.9985 3.02858L11.5848 1.45473C11.4885 1.08852 11.1575 0.833252 10.7788 0.833252H9.15051ZM15.5343 14.9534L14.9642 15.5236L14.9579 15.5181C14.6502 15.2501 14.2537 14.911 14.0302 14.7512C13.7961 14.5839 13.4924 14.5491 13.2266 14.6592L11.0175 15.5742C10.7743 15.6749 10.593 15.8845 10.5285 16.1397L10.1843 17.4999H9.8154L9.47181 16.1392C9.40717 15.8832 9.22504 15.673 8.98086 15.5726L6.8092 14.6792C6.52642 14.5629 6.20264 14.6108 5.96564 14.804L5.05662 15.545L4.47877 14.9672L5.21829 14.1379C5.43238 13.8978 5.48918 13.556 5.36423 13.2595L4.43507 11.0554C4.33565 10.8196 4.1334 10.6425 3.8865 10.5751L2.49967 10.1968V9.82778L3.8333 9.51643C4.09676 9.45492 4.31396 9.26934 4.41584 9.01871L5.31584 6.80455C5.4303 6.52294 5.38235 6.20134 5.1907 5.96538L4.4536 5.05783L5.03307 4.47836L5.86577 5.21918C6.10583 5.43276 6.44729 5.48929 6.74338 5.36448L8.94755 4.43531C9.18578 4.33488 9.36391 4.12957 9.42972 3.87955L9.79287 2.49992H10.1363L10.4921 3.85344C10.5585 4.10609 10.7395 4.31298 10.9811 4.41232L13.2369 5.33981C13.5262 5.45872 13.8576 5.40572 14.0953 5.20255L14.9553 4.46742L15.5352 5.04726L14.8007 5.91613C14.5995 6.15423 14.548 6.48476 14.6672 6.77282L15.5814 8.98116C15.6819 9.22402 15.8911 9.40522 16.1459 9.47002L17.4997 9.81445V10.1705L16.1351 10.525C15.8822 10.5908 15.6747 10.7713 15.5747 11.0128L14.6597 13.2228C14.5403 13.5113 14.5921 13.8424 14.7941 14.0806L15.5343 14.9534Z" fill="#FFE1C5"/>
</svg>
