<svg width="16" height="17" viewBox="0 0 16 17" fill="none" xmlns="http://www.w3.org/2000/svg">
<path d="M1.5 8.78572V5.07143H7.25V8.78572H1.5ZM1.5 10.5H7.25V14.7857H2C1.725 14.7857 1.5 14.5286 1.5 14.2143V10.5ZM8.75 14.7857V10.5H14.5V14.2143C14.5 14.5286 14.275 14.7857 14 14.7857H8.75ZM14.5 8.78572H8.75V5.07143H14.5V8.78572ZM2 0.5C0.896875 0.5 0 1.525 0 2.78571V14.2143C0 15.475 0.896875 16.5 2 16.5H14C15.1031 16.5 16 15.475 16 14.2143V2.78571C16 1.525 15.1031 0.5 14 0.5H2Z" fill="#1E293B"/>
</svg>
