<svg width="14" height="14" viewBox="0 0 14 14" fill="none" xmlns="http://www.w3.org/2000/svg">
<path d="M10.1499 8.06326L9.30888 8.69892L8.67322 7.85791" stroke="black" stroke-linecap="round" stroke-linejoin="round"/>
<path d="M9.26249 8.63553C9.40133 8.36878 9.49553 8.07305 9.53408 7.75695C9.70652 6.34296 8.70005 5.05691 7.28606 4.88447C6.83854 4.82989 6.40383 4.8934 6.01318 5.05056" stroke="black" stroke-linecap="round" stroke-linejoin="round"/>
<path d="M3.7948 6.8654L4.6358 6.22974L5.27146 7.07075" stroke="black" stroke-linecap="round" stroke-linejoin="round"/>
<path d="M4.68219 6.29321C4.54334 6.55996 4.44914 6.85569 4.41059 7.17179C4.23815 8.58578 5.24462 9.87183 6.65861 10.0443C7.10613 10.0988 7.54085 10.0353 7.93149 9.87818" stroke="black" stroke-linecap="round" stroke-linejoin="round"/>
<path d="M13.5 4.5C13.5 4.23478 13.3946 3.98043 13.2071 3.79289C13.0196 3.60536 12.7652 3.5 12.5 3.5H10.5L9 1.5H5L3.5 3.5H1.5C1.23478 3.5 0.98043 3.60536 0.792893 3.79289C0.605357 3.98043 0.5 4.23478 0.5 4.5V11.5C0.5 11.7652 0.605357 12.0196 0.792893 12.2071C0.98043 12.3946 1.23478 12.5 1.5 12.5H12.5C12.7652 12.5 13.0196 12.3946 13.2071 12.2071C13.3946 12.0196 13.5 11.7652 13.5 11.5V4.5Z" stroke="black" stroke-linecap="round" stroke-linejoin="round"/>
</svg>
