
<svg version="1.1" id="Capa_1" xmlns="http://www.w3.org/2000/svg" xmlns:xlink="http://www.w3.org/1999/xlink" x="0px" y="0px"
	 viewBox="0 0 22 23" style="enable-background:new 0 0 22 23;" xml:space="preserve">
<style type="text/css">
	.st0{fill:#090B0B;}
</style>
<path class="st0" d="M15.2,6.8c0.3,0.3,0.2,0.7,0,1c-0.3,0.3-0.7,0.2-1,0L11.7,5v10.1c0,0.4-0.3,0.7-0.7,0.7c-0.4,0-0.7-0.3-0.7-0.7
	V5L7.8,7.7C7.6,8,7.1,8,6.9,7.8s-0.3-0.7,0-1l3.7-4c0.1-0.1,0.3-0.2,0.5-0.2c0.2,0,0.4,0.1,0.5,0.2L15.2,6.8z"/>
<path d="M3.4,14.2c0-0.4-0.3-0.7-0.7-0.7c-0.4,0-0.7,0.3-0.7,0.7v0.1c0,1.3,0,2.3,0.1,3.1c0.1,0.8,0.3,1.5,0.9,2.1
	c0.6,0.6,1.2,0.8,2.1,0.9c0.8,0.1,1.8,0.1,3.1,0.1h5.6c1.3,0,2.3,0,3.1-0.1c0.8-0.1,1.5-0.3,2.1-0.9c0.6-0.6,0.8-1.2,0.9-2.1
	c0.1-0.8,0.1-1.8,0.1-3.1v-0.1c0-0.4-0.3-0.7-0.7-0.7s-0.7,0.3-0.7,0.7c0,1.3,0,2.2-0.1,2.9c-0.1,0.7-0.3,1-0.5,1.3
	c-0.3,0.3-0.6,0.4-1.3,0.5c-0.7,0.1-1.6,0.1-2.9,0.1H8.2c-1.3,0-2.2,0-2.9-0.1c-0.7-0.1-1-0.3-1.3-0.5c-0.3-0.3-0.4-0.6-0.5-1.3
	C3.4,16.5,3.4,15.6,3.4,14.2z"/>
</svg>
